# xmcd CD database file
#
# Track frame offsets:
#	150
#	20981
#	36099
#	58417
#	95972
#	122049
#	140433
#	172502
#	192083
#	242473
#	261180
#	300573
#
# Disc length: 4451 seconds
#
# Revision: 0
# Processed by: cddbd v1.5.2PL0 Copyright (c) Steve Scherf et al.
# Submitted via: Feurio! 1.68 - http://www.feurio.com
#
DISCID=a511610c
DTITLE=Chris Duarte Group - My Soul Alone
DYEAR=1900
DGENRE=
TTITLE0=Show Me That You Want It
TTITLE1=Yes, It's You
TTITLE2=Take Me Now
TTITLE3=A Dollar Down and Feeling Low
TTITLE4=I Bucked It Up
TTITLE5=Outta My Way
TTITLE6=Leave My Soul Alone
TTITLE7=Sweet Little Girl
TTITLE8=Lazy Afternoon
TTITLE9=Can't Shut Me Out
TTITLE10=Blue Jean Outlaw
TTITLE11=Carelessness
EXTD=
EXTT0=
EXTT1=
EXTT2=
EXTT3=
EXTT4=
EXTT5=
EXTT6=
EXTT7=
EXTT8=
EXTT9=
EXTT10=
EXTT11=
PLAYORDER=
